<svg width="666" height="367" viewBox="0 0 666 367" fill="none" xmlns="http://www.w3.org/2000/svg">
<g clip-path="url(#clip0_9_2)">
<mask id="path-1-inside-1_9_2" fill="white">
<path d="M0 0H666V367H0V0Z"/>
</mask>
<path d="M644.497 366.76H641.617V366.073H644.497V366.76ZM638.736 366.76H635.856V366.073H638.736V366.76ZM632.976 366.76H630.096V366.073H632.976V366.76ZM627.216 366.76H624.336V366.073H627.216V366.76ZM621.456 366.76H618.576V366.073H621.456V366.76ZM615.696 366.76H612.815V366.073H615.696V366.76ZM609.936 366.76H607.055V366.073H609.936V366.76ZM604.175 366.76H601.295V366.073H604.175V366.76ZM598.415 366.76H595.535V366.073H598.415V366.76ZM592.655 366.76H589.775V366.073H592.655V366.76ZM586.895 366.76H584.014V366.073H586.895V366.76ZM581.134 366.76H578.254V366.073H581.134V366.76ZM575.374 366.76H572.494V366.073H575.374V366.76ZM569.614 366.76H566.734V366.073H569.614V366.76ZM563.854 366.76H560.974V366.073H563.854V366.76ZM558.094 366.76H555.213V366.073H558.094V366.76ZM552.333 366.76H549.453V366.073H552.333V366.76ZM546.573 366.76H543.693V366.073H546.573V366.76ZM540.813 366.76H537.933V366.073H540.813V366.76ZM535.053 366.76H532.173V366.073H535.053V366.76ZM529.292 366.76H526.412V366.073H529.292V366.76ZM523.532 366.76H520.652V366.073H523.532V366.76ZM517.772 366.76H514.892V366.073H517.772V366.76ZM512.012 366.76H509.132V366.073H512.012V366.76ZM506.252 366.76H503.372V366.073H506.252V366.76ZM500.491 366.76H497.611V366.073H500.491V366.76ZM494.731 366.76H491.851V366.073H494.731V366.76ZM488.971 366.76H486.091V366.073H488.971V366.76ZM483.211 366.76H480.331V366.073H483.211V366.76ZM477.451 366.76H474.571V366.073H477.451L477.451 366.76ZM471.69 366.76H468.81V366.073H471.69V366.76ZM465.93 366.76H463.05V366.073H465.93V366.76ZM460.17 366.76H457.29V366.073H460.17V366.76ZM454.41 366.76H451.53V366.073H454.41V366.76ZM448.65 366.76H445.77V366.073H448.65V366.76ZM442.89 366.76H440.009V366.073H442.89V366.76ZM437.129 366.76H434.249V366.073H437.129V366.76ZM431.369 366.76H428.489V366.073H431.369V366.76ZM425.609 366.76H422.729V366.073H425.609V366.76ZM419.849 366.76H416.969V366.073H419.849V366.76ZM414.089 366.76H411.208V366.073H414.089V366.76ZM408.328 366.76H405.448V366.073H408.328V366.76ZM402.568 366.76H399.688V366.073H402.568V366.76ZM396.808 366.76H393.928V366.073H396.808V366.76ZM391.048 366.76H388.168V366.073H391.048V366.76ZM385.288 366.76H382.407V366.073H385.288V366.76ZM379.527 366.76H376.647V366.073H379.527V366.76ZM373.767 366.76H370.887V366.073H373.767V366.76ZM368.007 366.76H365.127V366.073H368.007V366.76ZM362.247 366.76H359.367V366.073H362.247V366.76ZM356.487 366.76H353.607V366.073H356.487V366.76ZM350.727 366.76H347.846V366.073H350.727V366.76ZM344.966 366.76H342.086V366.073H344.966V366.76ZM339.206 366.76H336.326V366.073H339.206V366.76ZM333.446 366.76H330.566V366.073H333.446V366.76ZM327.686 366.76H324.805V366.073H327.686V366.76ZM321.925 366.76H319.045V366.073H321.925V366.76ZM316.165 366.76H313.285V366.073H316.165V366.76ZM310.405 366.76H307.525V366.073H310.405V366.76ZM304.645 366.76H301.765V366.073H304.645V366.76ZM298.885 366.76H296.005V366.073H298.885V366.76ZM293.124 366.76H290.244V366.073H293.124V366.76ZM287.364 366.76H284.484V366.073H287.364V366.76ZM281.604 366.76H278.724V366.073H281.604V366.76ZM275.844 366.76H272.964V366.073H275.844V366.76ZM270.084 366.76H267.204V366.073H270.084V366.76ZM264.324 366.76H261.443V366.073H264.324V366.76ZM258.563 366.76H255.683V366.073H258.563V366.76ZM252.803 366.76H249.923V366.073H252.803V366.76ZM247.043 366.76H244.163V366.073H247.043V366.76ZM241.283 366.76H238.403V366.073H241.283V366.76ZM235.523 366.76H232.642V366.073H235.523L235.523 366.76ZM229.762 366.76H226.882V366.073H229.762V366.76ZM224.002 366.76H221.122V366.073H224.002V366.76ZM218.242 366.76H215.362V366.073H218.242V366.76ZM212.482 366.76H209.602V366.073H212.482V366.76ZM206.722 366.76H203.842V366.073H206.722V366.76ZM200.961 366.76H198.081V366.073H200.961V366.76ZM195.201 366.76H192.321V366.073H195.201V366.76ZM189.441 366.76H186.561V366.073H189.441V366.76ZM183.681 366.76H180.801V366.073H183.681V366.76ZM177.921 366.76H175.04V366.073H177.921V366.76ZM172.161 366.76H169.28V366.073H172.161V366.76ZM166.4 366.76H163.52V366.073H166.4V366.76ZM160.64 366.76H157.76V366.073H160.64V366.76ZM154.88 366.76H152V366.073H154.88V366.76ZM149.12 366.76H146.24V366.073H149.12V366.76ZM143.359 366.76H140.479V366.073H143.359V366.76ZM137.599 366.76H134.719V366.073H137.599V366.76ZM131.839 366.76H128.959V366.073H131.839V366.76ZM126.079 366.76H123.199V366.073H126.079V366.76ZM120.319 366.76H117.439V366.073H120.319V366.76ZM114.559 366.76H111.678V366.073H114.559V366.76ZM108.798 366.76H105.918V366.073H108.798V366.76ZM103.038 366.76H100.158V366.073H103.038V366.76ZM97.2779 366.76H94.3978V366.073H97.2779V366.76ZM91.5177 366.76H88.6375V366.073H91.5177V366.76ZM85.7575 366.76H82.8774V366.073H85.7575V366.76ZM79.9973 366.76H77.1172V366.073H79.9973V366.76ZM74.2371 366.76H71.3568V366.073H74.2371V366.76ZM68.477 366.76H65.5968V366.073H68.477V366.76ZM62.7167 366.76H59.8367V366.073H62.7167V366.76ZM56.9566 366.76H54.0765V366.073H56.9566V366.76ZM51.1964 366.76H48.3163V366.073H51.1965V366.76H51.1964ZM45.4362 366.76H42.5561V366.073H45.4362V366.76ZM39.676 366.76H36.7959V366.073H39.676V366.76ZM33.9158 366.76H31.0355V366.073H33.9158V366.76Z" fill="#272425"/>
<path d="M642.973 51.4422H640.092V50.7555H642.973V51.4422ZM637.212 51.4422H634.332V50.7555H637.212V51.4422ZM631.452 51.4422H628.572V50.7555H631.452V51.4422ZM625.692 51.4422H622.812V50.7555H625.692V51.4422ZM619.932 51.4422H617.052V50.7555H619.932V51.4422ZM614.172 51.4422H611.292V50.7555H614.172V51.4422ZM608.411 51.4422H605.531V50.7555H608.411V51.4422ZM602.651 51.4422H599.771V50.7555H602.651V51.4422ZM596.891 51.4422H594.011V50.7555H596.891V51.4422ZM591.131 51.4422H588.251V50.7555H591.131V51.4422ZM585.371 51.4422H582.49V50.7555H585.371V51.4422ZM579.61 51.4422H576.73V50.7555H579.61V51.4422ZM573.85 51.4422H570.97V50.7555H573.85V51.4422ZM568.09 51.4422H565.21V50.7555H568.09V51.4422ZM562.33 51.4422H559.45V50.7555H562.33V51.4422ZM556.57 51.4422H553.69V50.7555H556.57V51.4422ZM550.809 51.4422H547.929V50.7555H550.809V51.4422ZM545.049 51.4422H542.169V50.7555H545.049V51.4422ZM539.289 51.4422H536.409V50.7555H539.289V51.4422ZM533.529 51.4422H530.649V50.7555H533.529V51.4422ZM527.769 51.4422H524.889V50.7555H527.769V51.4422ZM522.009 51.4422H519.128V50.7555H522.009V51.4422ZM516.248 51.4422H513.368V50.7555H516.248V51.4422ZM510.488 51.4422H507.608V50.7555H510.488V51.4422ZM504.728 51.4422H501.848V50.7555H504.728V51.4422ZM498.968 51.4422H496.088V50.7555H498.968V51.4422ZM493.207 51.4422H490.327V50.7555H493.207V51.4422ZM487.447 51.4422H484.567V50.7555H487.447V51.4422ZM481.687 51.4422H478.807V50.7555H481.687V51.4422ZM475.927 51.4422H473.047V50.7555H475.927V51.4422ZM470.167 51.4422H467.287V50.7555H470.167V51.4422ZM464.407 51.4422H461.526V50.7555H464.407V51.4422ZM458.646 51.4422H455.766V50.7555H458.646V51.4422ZM452.886 51.4422H450.006V50.7555H452.886V51.4422ZM447.126 51.4422H444.246V50.7555H447.126V51.4422ZM441.366 51.4422H438.486V50.7555H441.366V51.4422ZM435.606 51.4422H432.726V50.7555H435.606V51.4422ZM429.845 51.4422H426.965V50.7555H429.845V51.4422ZM424.085 51.4422H421.205V50.7555H424.085V51.4422ZM418.325 51.4422H415.445V50.7555H418.325V51.4422ZM412.565 51.4422H409.685V50.7555H412.565V51.4422ZM406.805 51.4422H403.925V50.7555H406.805V51.4422ZM401.045 51.4422H398.164V50.7555H401.045V51.4422ZM395.284 51.4422H392.404V50.7555H395.284V51.4422ZM389.524 51.4422H386.644V50.7555H389.524V51.4422ZM383.764 51.4422H380.884V50.7555H383.764V51.4422ZM378.004 51.4422H375.124V50.7555H378.004V51.4422ZM372.243 51.4422H369.363V50.7555H372.243V51.4422ZM366.483 51.4422H363.603V50.7555H366.483V51.4422ZM360.723 51.4422H357.843V50.7555H360.723V51.4422ZM354.963 51.4422H352.083V50.7555H354.963V51.4422ZM349.203 51.4422H346.323V50.7555H349.203V51.4422ZM343.443 51.4422H340.562V50.7555H343.443V51.4422ZM337.682 51.4422H334.802V50.7555H337.682V51.4422ZM331.922 51.4422H329.042V50.7555H331.922V51.4422ZM326.162 51.4422H323.282V50.7555H326.162V51.4422ZM320.402 51.4422H317.522V50.7555H320.402V51.4422ZM314.642 51.4422H311.761V50.7555H314.642V51.4422ZM308.881 51.4422H306.001V50.7555H308.881V51.4422ZM303.121 51.4422H300.241V50.7555H303.121V51.4422ZM297.361 51.4422H294.481V50.7555H297.361V51.4422ZM291.601 51.4422H288.721V50.7555H291.601V51.4422ZM285.841 51.4422H282.961V50.7555H285.841V51.4422ZM280.08 51.4422H277.2V50.7555H280.08V51.4422ZM274.32 51.4422H271.44V50.7555H274.32V51.4422ZM268.56 51.4422H265.68V50.7555H268.56V51.4422ZM262.8 51.4422H259.92V50.7555H262.8V51.4422ZM257.04 51.4422H254.159V50.7555H257.04V51.4422ZM251.279 51.4422H248.399V50.7555H251.279V51.4422ZM245.519 51.4422H242.639V50.7555H245.519V51.4422ZM239.759 51.4422H236.879V50.7555H239.759V51.4422ZM233.999 51.4422H231.119V50.7555H233.999V51.4422ZM228.239 51.4422H225.359V50.7555H228.239V51.4422ZM222.478 51.4422H219.598V50.7555H222.478V51.4422ZM216.718 51.4422H213.838V50.7555H216.718V51.4422ZM210.958 51.4422H208.078V50.7555H210.958V51.4422ZM205.198 51.4422H202.318V50.7555H205.198V51.4422ZM199.438 51.4422H196.558V50.7555H199.438V51.4422ZM193.678 51.4422H190.797V50.7555H193.678V51.4422ZM187.917 51.4422H185.037V50.7555H187.917V51.4422ZM182.157 51.4422H179.277V50.7555H182.157V51.4422ZM176.397 51.4422H173.517V50.7555H176.397V51.4422ZM170.637 51.4422H167.757V50.7555H170.637V51.4422ZM164.876 51.4422H161.996V50.7555H164.876V51.4422ZM159.116 51.4422H156.236V50.7555H159.116V51.4422ZM153.356 51.4422H150.476V50.7555H153.356V51.4422ZM147.596 51.4422H144.716V50.7555H147.596V51.4422ZM141.836 51.4422H138.955V50.7555H141.836V51.4422ZM136.075 51.4422H133.195V50.7555H136.075V51.4422ZM130.315 51.4422H127.435V50.7555H130.315V51.4422ZM124.555 51.4422H121.675V50.7555H124.555V51.4422ZM118.795 51.4422H115.915V50.7555H118.795V51.4422ZM113.035 51.4422H110.154V50.7555H113.035V51.4422ZM107.274 51.4422H104.394V50.7555H107.274V51.4422ZM101.514 51.4422H98.634V50.7555H101.514V51.4422ZM95.754 51.4422H92.8739V50.7555H95.754V51.4422ZM89.9937 51.4422H87.1136V50.7555H89.9937V51.4422ZM84.2336 51.4422H81.3534V50.7555H84.2336V51.4422ZM78.4734 51.4422H75.5933V50.7555H78.4734V51.4422ZM72.713 51.4422H69.8329V50.7555H72.713V51.4422ZM66.9528 51.4422H64.0727V50.7555H66.9528V51.4422ZM61.1928 51.4422H58.3125V50.7555H61.1928V51.4422ZM55.4324 51.4422H52.5523V50.7555H55.4324V51.4422ZM49.6722 51.4422H46.7921V50.7555H49.6722V51.4422ZM43.9121 51.4422H41.0319V50.7555H43.9121V51.4422ZM38.1518 51.4422H35.2718V50.7555H38.1519L38.1518 51.4422ZM32.3916 51.4422H29.5115V50.7555H32.3916V51.4422Z" fill="#272425"/>
<path d="M642.973 335.197H640.092V334.51H642.973V335.197ZM637.212 335.197H634.332V334.51H637.212V335.197ZM631.452 335.197H628.572V334.51H631.452V335.197ZM625.692 335.197H622.812V334.51H625.692V335.197ZM619.932 335.197H617.052V334.51H619.932V335.197ZM614.172 335.197H611.292V334.51H614.172V335.197ZM608.411 335.197H605.531V334.51H608.411V335.197ZM602.651 335.197H599.771V334.51H602.651V335.197ZM596.891 335.197H594.011V334.51H596.891V335.197ZM591.131 335.197H588.251V334.51H591.131V335.197ZM585.371 335.197H582.49V334.51H585.371V335.197ZM579.61 335.197H576.73V334.51H579.61V335.197ZM573.85 335.197H570.97V334.51H573.85V335.197ZM568.09 335.197H565.21V334.51H568.09V335.197ZM562.33 335.197H559.45V334.51H562.33V335.197ZM556.57 335.197H553.69V334.51H556.57V335.197ZM550.809 335.197H547.929V334.51H550.809V335.197ZM545.049 335.197H542.169V334.51H545.049V335.197ZM539.289 335.197H536.409V334.51H539.289V335.197ZM533.529 335.197H530.649V334.51H533.529V335.197ZM527.769 335.197H524.889V334.51H527.769V335.197ZM522.009 335.197H519.128V334.51H522.009V335.197ZM516.248 335.197H513.368V334.51H516.248V335.197ZM510.488 335.197H507.608V334.51H510.488V335.197ZM504.728 335.197H501.848V334.51H504.728V335.197ZM498.968 335.197H496.088V334.51H498.968V335.197ZM493.207 335.197H490.327V334.51H493.207V335.197ZM487.447 335.197H484.567V334.51H487.447V335.197ZM481.687 335.197H478.807V334.51H481.687V335.197ZM475.927 335.197H473.047V334.51H475.927V335.197ZM470.167 335.197H467.287V334.51H470.167V335.197ZM464.407 335.197H461.526V334.51H464.407V335.197ZM458.646 335.197H455.766V334.51H458.646V335.197ZM452.886 335.197H450.006V334.51H452.886V335.197ZM447.126 335.197H444.246V334.51H447.126V335.197ZM441.366 335.197H438.486V334.51H441.366V335.197ZM435.606 335.197H432.726V334.51H435.606V335.197ZM429.845 335.197H426.965V334.51H429.845V335.197ZM424.085 335.197H421.205V334.51H424.085V335.197ZM418.325 335.197H415.445V334.51H418.325V335.197ZM412.565 335.197H409.685V334.51H412.565V335.197ZM406.805 335.197H403.925V334.51H406.805V335.197ZM401.045 335.197H398.164V334.51H401.045V335.197ZM395.284 335.197H392.404V334.51H395.284V335.197ZM389.524 335.197H386.644V334.51H389.524V335.197ZM383.764 335.197H380.884V334.51H383.764V335.197ZM378.004 335.197H375.124V334.51H378.004V335.197ZM372.243 335.197H369.363V334.51H372.243V335.197ZM366.483 335.197H363.603V334.51H366.483V335.197ZM360.723 335.197H357.843V334.51H360.723V335.197ZM354.963 335.197H352.083V334.51H354.963V335.197ZM349.203 335.197H346.323V334.51H349.203V335.197ZM343.443 335.197H340.562V334.51H343.443V335.197ZM337.682 335.197H334.802V334.51H337.682V335.197ZM331.922 335.197H329.042V334.51H331.922V335.197ZM326.162 335.197H323.282V334.51H326.162V335.197ZM320.402 335.197H317.522V334.51H320.402V335.197ZM314.642 335.197H311.761V334.51H314.642V335.197ZM308.881 335.197H306.001V334.51H308.881V335.197ZM303.121 335.197H300.241V334.51H303.121V335.197ZM297.361 335.197H294.481V334.51H297.361V335.197ZM291.601 335.197H288.721V334.51H291.601V335.197ZM285.841 335.197H282.961V334.51H285.841V335.197ZM280.08 335.197H277.2V334.51H280.08V335.197ZM274.32 335.197H271.44V334.51H274.32V335.197ZM268.56 335.197H265.68V334.51H268.56V335.197ZM262.8 335.197H259.92V334.51H262.8V335.197ZM257.04 335.197H254.159V334.51H257.04V335.197ZM251.279 335.197H248.399V334.51H251.279V335.197ZM245.519 335.197H242.639V334.51H245.519V335.197ZM239.759 335.197H236.879V334.51H239.759V335.197ZM233.999 335.197H231.119V334.51H233.999V335.197ZM228.239 335.197H225.359V334.51H228.239V335.197ZM222.478 335.197H219.598V334.51H222.478V335.197ZM216.718 335.197H213.838V334.51H216.718V335.197ZM210.958 335.197H208.078V334.51H210.958V335.197ZM205.198 335.197H202.318V334.51H205.198V335.197ZM199.438 335.197H196.558V334.51H199.438V335.197ZM193.678 335.197H190.797V334.51H193.678V335.197ZM187.917 335.197H185.037V334.51H187.917V335.197ZM182.157 335.197H179.277V334.51H182.157V335.197ZM176.397 335.197H173.517V334.51H176.397V335.197ZM170.637 335.197H167.757V334.51H170.637V335.197ZM164.876 335.197H161.996V334.51H164.876V335.197ZM159.116 335.197H156.236V334.51H159.116V335.197ZM153.356 335.197H150.476V334.51H153.356V335.197ZM147.596 335.197H144.716V334.51H147.596V335.197ZM141.836 335.197H138.955V334.51H141.836V335.197ZM136.075 335.197H133.195V334.51H136.075V335.197ZM130.315 335.197H127.435V334.51H130.315V335.197ZM124.555 335.197H121.675V334.51H124.555V335.197ZM118.795 335.197H115.915V334.51H118.795V335.197ZM113.035 335.197H110.154V334.51H113.035V335.197ZM107.274 335.197H104.394V334.51H107.274V335.197ZM101.514 335.197H98.634V334.51H101.514V335.197ZM95.754 335.197H92.8739V334.51H95.754V335.197ZM89.9937 335.197H87.1136V334.51H89.9937V335.197ZM84.2336 335.197H81.3534V334.51H84.2336V335.197ZM78.4734 335.197H75.5933V334.51H78.4734V335.197ZM72.713 335.197H69.8329V334.51H72.713V335.197ZM66.9528 335.197H64.0727V334.51H66.9528V335.197ZM61.1928 335.197H58.3125V334.51H61.1928V335.197ZM55.4324 335.197H52.5523V334.51H55.4324V335.197ZM49.6722 335.197H46.7921V334.51H49.6722V335.197ZM43.9121 335.197H41.0319V334.51H43.9121V335.197ZM38.1518 335.197H35.2718V334.51H38.1519V335.197H38.1518ZM32.3916 335.197H29.5115V334.51H32.3916V335.197Z" fill="#272425"/>
<path d="M642.973 303.711H640.092V303.025H642.973V303.711ZM637.212 303.711H634.332V303.025H637.212V303.711ZM631.452 303.711H628.572V303.025H631.452V303.711ZM625.692 303.711H622.812V303.025H625.692V303.711ZM619.932 303.711H617.052V303.025H619.932V303.711ZM614.172 303.711H611.292V303.025H614.172V303.711ZM608.411 303.711H605.531V303.025H608.411V303.711ZM602.651 303.711H599.771V303.025H602.651V303.711ZM596.891 303.711H594.011V303.025H596.891V303.711ZM591.131 303.711H588.251V303.025H591.131V303.711ZM585.371 303.711H582.49V303.025H585.371V303.711ZM579.61 303.711H576.73V303.025H579.61V303.711ZM573.85 303.711H570.97V303.025H573.85V303.711ZM568.09 303.711H565.21V303.025H568.09V303.711ZM562.33 303.711H559.45V303.025H562.33V303.711ZM556.57 303.711H553.69V303.025H556.57V303.711ZM550.809 303.711H547.929V303.025H550.809V303.711ZM545.049 303.711H542.169V303.025H545.049V303.711ZM539.289 303.711H536.409V303.025H539.289V303.711ZM533.529 303.711H530.649V303.025H533.529V303.711ZM527.769 303.711H524.889V303.025H527.769V303.711ZM522.009 303.711H519.128V303.025H522.009V303.711ZM516.248 303.711H513.368V303.025H516.248V303.711ZM510.488 303.711H507.608V303.025H510.488V303.711ZM504.728 303.711H501.848V303.025H504.728V303.711ZM498.968 303.711H496.088V303.025H498.968V303.711ZM493.207 303.711H490.327V303.025H493.207V303.711ZM487.447 303.711H484.567V303.025H487.447V303.711ZM481.687 303.711H478.807V303.025H481.687V303.711ZM475.927 303.711H473.047V303.025H475.927V303.711ZM470.167 303.711H467.287V303.025H470.167V303.711ZM464.407 303.711H461.526V303.025H464.407V303.711ZM458.646 303.711H455.766V303.025H458.646V303.711ZM452.886 303.711H450.006V303.025H452.886V303.711ZM447.126 303.711H444.246V303.025H447.126V303.711ZM441.366 303.711H438.486V303.025H441.366V303.711ZM435.606 303.711H432.726V303.025H435.606V303.711ZM429.845 303.711H426.965V303.025H429.845V303.711ZM424.085 303.711H421.205V303.025H424.085V303.711ZM418.325 303.711H415.445V303.025H418.325V303.711ZM412.565 303.711H409.685V303.025H412.565V303.711ZM406.805 303.711H403.925V303.025H406.805V303.711ZM401.045 303.711H398.164V303.025H401.045V303.711ZM395.284 303.711H392.404V303.025H395.284V303.711ZM389.524 303.711H386.644V303.025H389.524V303.711ZM383.764 303.711H380.884V303.025H383.764V303.711ZM378.004 303.711H375.124V303.025H378.004V303.711ZM372.243 303.711H369.363V303.025H372.243V303.711ZM366.483 303.711H363.603V303.025H366.483V303.711ZM360.723 303.711H357.843V303.025H360.723V303.711ZM354.963 303.711H352.083V303.025H354.963V303.711ZM349.203 303.711H346.323V303.025H349.203V303.711ZM343.443 303.711H340.562V303.025H343.443V303.711ZM337.682 303.711H334.802V303.025H337.682V303.711ZM331.922 303.711H329.042V303.025H331.922V303.711ZM326.162 303.711H323.282V303.025H326.162V303.711ZM320.402 303.711H317.522V303.025H320.402V303.711ZM314.642 303.711H311.761V303.025H314.642V303.711ZM308.881 303.711H306.001V303.025H308.881V303.711ZM303.121 303.711H300.241V303.025H303.121V303.711ZM297.361 303.711H294.481V303.025H297.361V303.711ZM291.601 303.711H288.721V303.025H291.601V303.711ZM285.841 303.711H282.961V303.025H285.841V303.711ZM280.08 303.711H277.2V303.025H280.08V303.711ZM274.32 303.711H271.44V303.025H274.32V303.711ZM268.56 303.711H265.68V303.025H268.56V303.711ZM262.8 303.711H259.92V303.025H262.8V303.711ZM257.04 303.711H254.159V303.025H257.04V303.711ZM251.279 303.711H248.399V303.025H251.279V303.711ZM245.519 303.711H242.639V303.025H245.519V303.711ZM239.759 303.711H236.879V303.025H239.759V303.711ZM233.999 303.711H231.119V303.025H233.999V303.711ZM228.239 303.711H225.359V303.025H228.239V303.711ZM222.478 303.711H219.598V303.025H222.478V303.711ZM216.718 303.711H213.838V303.025H216.718V303.711ZM210.958 303.711H208.078V303.025H210.958V303.711ZM205.198 303.711H202.318V303.025H205.198V303.711ZM199.438 303.711H196.558V303.025H199.438V303.711ZM193.678 303.711H190.797V303.025H193.678V303.711ZM187.917 303.711H185.037V303.025H187.917V303.711ZM182.157 303.711H179.277V303.025H182.157V303.711ZM176.397 303.711H173.517V303.025H176.397V303.711ZM170.637 303.711H167.757V303.025H170.637V303.711ZM164.876 303.711H161.996V303.025H164.876V303.711ZM159.116 303.711H156.236V303.025H159.116V303.711ZM153.356 303.711H150.476V303.025H153.356V303.711ZM147.596 303.711H144.716V303.025H147.596V303.711ZM141.836 303.711H138.955V303.025H141.836V303.711ZM136.075 303.711H133.195V303.025H136.075V303.711ZM130.315 303.711H127.435V303.025H130.315V303.711ZM124.555 303.711H121.675V303.025H124.555V303.711ZM118.795 303.711H115.915V303.025H118.795V303.711ZM113.035 303.711H110.154V303.025H113.035V303.711ZM107.274 303.711H104.394V303.025H107.274V303.711ZM101.514 303.711H98.634V303.025H101.514V303.711ZM95.754 303.711H92.8739V303.025H95.754V303.711ZM89.9937 303.711H87.1136V303.025H89.9937V303.711ZM84.2336 303.711H81.3534V303.025H84.2336V303.711ZM78.4734 303.711H75.5933V303.025H78.4734V303.711ZM72.713 303.711H69.8329V303.025H72.713V303.711ZM66.9528 303.711H64.0727V303.025H66.9528V303.711ZM61.1928 303.711H58.3125V303.025H61.1928V303.711ZM55.4324 303.711H52.5523V303.025H55.4324V303.711ZM49.6722 303.711H46.7921V303.025H49.6722V303.711ZM43.9121 303.711H41.0319V303.025H43.9121V303.711ZM38.1518 303.711H35.2718V303.025H38.1519V303.711H38.1518ZM32.3916 303.711H29.5115V303.025H32.3916V303.711Z" fill="#272425"/>
<path d="M642.973 272.149H640.092V271.462H642.973V272.149ZM637.212 272.149H634.332V271.462H637.212V272.149ZM631.452 272.149H628.572V271.462H631.452V272.149ZM625.692 272.149H622.812V271.462H625.692V272.149ZM619.932 272.149H617.052V271.462H619.932V272.149ZM614.172 272.149H611.292V271.462H614.172V272.149ZM608.411 272.149H605.531V271.462H608.411V272.149ZM602.651 272.149H599.771V271.462H602.651V272.149ZM596.891 272.149H594.011V271.462H596.891V272.149ZM591.131 272.149H588.251V271.462H591.131V272.149ZM585.371 272.149H582.49V271.462H585.371V272.149ZM579.61 272.149H576.73V271.462H579.61V272.149ZM573.85 272.149H570.97V271.462H573.85V272.149ZM568.09 272.149H565.21V271.462H568.09V272.149ZM562.33 272.149H559.45V271.462H562.33V272.149ZM556.57 272.149H553.69V271.462H556.57V272.149ZM550.809 272.149H547.929V271.462H550.809V272.149ZM545.049 272.149H542.169V271.462H545.049V272.149ZM539.289 272.149H536.409V271.462H539.289V272.149ZM533.529 272.149H530.649V271.462H533.529V272.149ZM527.769 272.149H524.889V271.462H527.769V272.149ZM522.009 272.149H519.128V271.462H522.009V272.149ZM516.248 272.149H513.368V271.462H516.248V272.149ZM510.488 272.149H507.608V271.462H510.488V272.149ZM504.728 272.149H501.848V271.462H504.728V272.149ZM498.968 272.149H496.088V271.462H498.968V272.149ZM493.207 272.149H490.327V271.462H493.207V272.149ZM487.447 272.149H484.567V271.462H487.447V272.149ZM481.687 272.149H478.807V271.462H481.687V272.149ZM475.927 272.149H473.047V271.462H475.927V272.149ZM470.167 272.149H467.287V271.462H470.167V272.149ZM464.407 272.149H461.526V271.462H464.407V272.149ZM458.646 272.149H455.766V271.462H458.646V272.149ZM452.886 272.149H450.006V271.462H452.886V272.149ZM447.126 272.149H444.246V271.462H447.126V272.149ZM441.366 272.149H438.486V271.462H441.366V272.149ZM435.606 272.149H432.726V271.462H435.606V272.149ZM429.845 272.149H426.965V271.462H429.845V272.149ZM424.085 272.149H421.205V271.462H424.085V272.149ZM418.325 272.149H415.445V271.462H418.325V272.149ZM412.565 272.149H409.685V271.462H412.565V272.149ZM406.805 272.149H403.925V271.462H406.805V272.149ZM401.045 272.149H398.164V271.462H401.045V272.149ZM395.284 272.149H392.404V271.462H395.284V272.149ZM389.524 272.149H386.644V271.462H389.524V272.149ZM383.764 272.149H380.884V271.462H383.764V272.149ZM378.004 272.149H375.124V271.462H378.004V272.149ZM372.243 272.149H369.363V271.462H372.243V272.149ZM366.483 272.149H363.603V271.462H366.483V272.149ZM360.723 272.149H357.843V271.462H360.723V272.149ZM354.963 272.149H352.083V271.462H354.963V272.149ZM349.203 272.149H346.323V271.462H349.203V272.149ZM343.443 272.149H340.562V271.462H343.443V272.149ZM337.682 272.149H334.802V271.462H337.682V272.149ZM331.922 272.149H329.042V271.462H331.922V272.149ZM326.162 272.149H323.282V271.462H326.162V272.149ZM320.402 272.149H317.522V271.462H320.402V272.149ZM314.642 272.149H311.761V271.462H314.642V272.149ZM308.881 272.149H306.001V271.462H308.881V272.149ZM303.121 272.149H300.241V271.462H303.121V272.149ZM297.361 272.149H294.481V271.462H297.361V272.149ZM291.601 272.149H288.721V271.462H291.601V272.149ZM285.841 272.149H282.961V271.462H285.841V272.149ZM280.08 272.149H277.2V271.462H280.08V272.149ZM274.32 272.149H271.44V271.462H274.32V272.149ZM268.56 272.149H265.68V271.462H268.56V272.149ZM262.8 272.149H259.92V271.462H262.8V272.149ZM257.04 272.149H254.159V271.462H257.04V272.149ZM251.279 272.149H248.399V271.462H251.279V272.149ZM245.519 272.149H242.639V271.462H245.519V272.149ZM239.759 272.149H236.879V271.462H239.759V272.149ZM233.999 272.149H231.119V271.462H233.999V272.149ZM228.239 272.149H225.359V271.462H228.239V272.149ZM222.478 272.149H219.598V271.462H222.478V272.149ZM216.718 272.149H213.838V271.462H216.718V272.149ZM210.958 272.149H208.078V271.462H210.958V272.149ZM205.198 272.149H202.318V271.462H205.198V272.149ZM199.438 272.149H196.558V271.462H199.438V272.149ZM193.678 272.149H190.797V271.462H193.678V272.149ZM187.917 272.149H185.037V271.462H187.917V272.149ZM182.157 272.149H179.277V271.462H182.157V272.149ZM176.397 272.149H173.517V271.462H176.397V272.149ZM170.637 272.149H167.757V271.462H170.637V272.149ZM164.876 272.149H161.996V271.462H164.876V272.149ZM159.116 272.149H156.236V271.462H159.116V272.149ZM153.356 272.149H150.476V271.462H153.356V272.149ZM147.596 272.149H144.716V271.462H147.596V272.149ZM141.836 272.149H138.955V271.462H141.836V272.149ZM136.075 272.149H133.195V271.462H136.075V272.149ZM130.315 272.149H127.435V271.462H130.315V272.149ZM124.555 272.149H121.675V271.462H124.555V272.149ZM118.795 272.149H115.915V271.462H118.795V272.149ZM113.035 272.149H110.154V271.462H113.035V272.149ZM107.274 272.149H104.394V271.462H107.274V272.149ZM101.514 272.149H98.634V271.462H101.514V272.149ZM95.754 272.149H92.8739V271.462H95.754V272.149ZM89.9937 272.149H87.1136V271.462H89.9937V272.149ZM84.2336 272.149H81.3534V271.462H84.2336V272.149ZM78.4734 272.149H75.5933V271.462H78.4734V272.149ZM72.713 272.149H69.8329V271.462H72.713V272.149ZM66.9528 272.149H64.0727V271.462H66.9528V272.149ZM61.1928 272.149H58.3125V271.462H61.1928V272.149ZM55.4324 272.149H52.5523V271.462H55.4324V272.149ZM49.6722 272.149H46.7921V271.462H49.6722V272.149ZM43.9121 272.149H41.0319V271.462H43.9121V272.149ZM38.1518 272.149H35.2718V271.462H38.1519V272.149H38.1518ZM32.3916 272.149H29.5115V271.462H32.3916V272.149Z" fill="#272425"/>
<path d="M642.973 240.663H640.092V239.977H642.973V240.663ZM637.212 240.663H634.332V239.977H637.212V240.663ZM631.452 240.663H628.572V239.977H631.452V240.663ZM625.692 240.663H622.812V239.977H625.692V240.663ZM619.932 240.663H617.052V239.977H619.932V240.663ZM614.172 240.663H611.292V239.977H614.172V240.663ZM608.411 240.663H605.531V239.977H608.411V240.663ZM602.651 240.663H599.771V239.977H602.651V240.663ZM596.891 240.663H594.011V239.977H596.891V240.663ZM591.131 240.663H588.251V239.977H591.131V240.663ZM585.371 240.663H582.49V239.977H585.371V240.663ZM579.61 240.663H576.73V239.977H579.61V240.663ZM573.85 240.663H570.97V239.977H573.85V240.663ZM568.09 240.663H565.21V239.977H568.09V240.663ZM562.33 240.663H559.45V239.977H562.33V240.663ZM556.57 240.663H553.69V239.977H556.57V240.663ZM550.809 240.663H547.929V239.977H550.809V240.663ZM545.049 240.663H542.169V239.977H545.049V240.663ZM539.289 240.663H536.409V239.977H539.289V240.663ZM533.529 240.663H530.649V239.977H533.529V240.663ZM527.769 240.663H524.889V239.977H527.769V240.663ZM522.009 240.663H519.128V239.977H522.009V240.663ZM516.248 240.663H513.368V239.977H516.248V240.663ZM510.488 240.663H507.608V239.977H510.488V240.663ZM504.728 240.663H501.848V239.977H504.728V240.663ZM498.968 240.663H496.088V239.977H498.968V240.663ZM493.207 240.663H490.327V239.977H493.207V240.663ZM487.447 240.663H484.567V239.977H487.447V240.663ZM481.687 240.663H478.807V239.977H481.687V240.663ZM475.927 240.663H473.047V239.977H475.927V240.663ZM470.167 240.663H467.287V239.977H470.167V240.663ZM464.407 240.663H461.526V239.977H464.407V240.663ZM458.646 240.663H455.766V239.977H458.646V240.663ZM452.886 240.663H450.006V239.977H452.886V240.663ZM447.126 240.663H444.246V239.977H447.126V240.663ZM441.366 240.663H438.486V239.977H441.366V240.663ZM435.606 240.663H432.726V239.977H435.606V240.663ZM429.845 240.663H426.965V239.977H429.845V240.663ZM424.085 240.663H421.205V239.977H424.085V240.663ZM418.325 240.663H415.445V239.977H418.325V240.663ZM412.565 240.663H409.685V239.977H412.565V240.663ZM406.805 240.663H403.925V239.977H406.805V240.663ZM401.045 240.663H398.164V239.977H401.045V240.663ZM395.284 240.663H392.404V239.977H395.284V240.663ZM389.524 240.663H386.644V239.977H389.524V240.663ZM383.764 240.663H380.884V239.977H383.764V240.663ZM378.004 240.663H375.124V239.977H378.004V240.663ZM372.243 240.663H369.363V239.977H372.243V240.663ZM366.483 240.663H363.603V239.977H366.483V240.663ZM360.723 240.663H357.843V239.977H360.723V240.663ZM354.963 240.663H352.083V239.977H354.963V240.663ZM349.203 240.663H346.323V239.977H349.203V240.663ZM343.443 240.663H340.562V239.977H343.443V240.663ZM337.682 240.663H334.802V239.977H337.682V240.663ZM331.922 240.663H329.042V239.977H331.922V240.663ZM326.162 240.663H323.282V239.977H326.162V240.663ZM320.402 240.663H317.522V239.977H320.402V240.663ZM314.642 240.663H311.761V239.977H314.642V240.663ZM308.881 240.663H306.001V239.977H308.881V240.663ZM303.121 240.663H300.241V239.977H303.121V240.663ZM297.361 240.663H294.481V239.977H297.361V240.663ZM291.601 240.663H288.721V239.977H291.601V240.663ZM285.841 240.663H282.961V239.977H285.841V240.663ZM280.08 240.663H277.2V239.977H280.08V240.663ZM274.32 240.663H271.44V239.977H274.32V240.663ZM268.56 240.663H265.68V239.977H268.56V240.663ZM262.8 240.663H259.92V239.977H262.8V240.663ZM257.04 240.663H254.159V239.977H257.04V240.663ZM251.279 240.663H248.399V239.977H251.279V240.663ZM245.519 240.663H242.639V239.977H245.519V240.663ZM239.759 240.663H236.879V239.977H239.759V240.663ZM233.999 240.663H231.119V239.977H233.999V240.663ZM228.239 240.663H225.359V239.977H228.239V240.663ZM222.478 240.663H219.598V239.977H222.478V240.663ZM216.718 240.663H213.838V239.977H216.718V240.663ZM210.958 240.663H208.078V239.977H210.958V240.663ZM205.198 240.663H202.318V239.977H205.198V240.663ZM199.438 240.663H196.558V239.977H199.438V240.663ZM193.678 240.663H190.797V239.977H193.678V240.663ZM187.917 240.663H185.037V239.977H187.917V240.663ZM182.157 240.663H179.277V239.977H182.157V240.663ZM176.397 240.663H173.517V239.977H176.397V240.663ZM170.637 240.663H167.757V239.977H170.637V240.663ZM164.876 240.663H161.996V239.977H164.876V240.663ZM159.116 240.663H156.236V239.977H159.116V240.663ZM153.356 240.663H150.476V239.977H153.356V240.663ZM147.596 240.663H144.716V239.977H147.596V240.663ZM141.836 240.663H138.955V239.977H141.836V240.663ZM136.075 240.663H133.195V239.977H136.075V240.663ZM130.315 240.663H127.435V239.977H130.315V240.663ZM124.555 240.663H121.675V239.977H124.555V240.663ZM118.795 240.663H115.915V239.977H118.795V240.663ZM113.035 240.663H110.154V239.977H113.035V240.663ZM107.274 240.663H104.394V239.977H107.274V240.663ZM101.514 240.663H98.634V239.977H101.514V240.663ZM95.754 240.663H92.8739V239.977H95.754V240.663ZM89.9937 240.663H87.1136V239.977H89.9937V240.663ZM84.2336 240.663H81.3534V239.977H84.2336V240.663ZM78.4734 240.663H75.5933V239.977H78.4734V240.663ZM72.713 240.663H69.8329V239.977H72.713V240.663ZM66.9528 240.663H64.0727V239.977H66.9528V240.663ZM61.1928 240.663H58.3125V239.977H61.1928V240.663ZM55.4324 240.663H52.5523V239.977H55.4324V240.663ZM49.6722 240.663H46.7921V239.977H49.6722V240.663ZM43.9121 240.663H41.0319V239.977H43.9121V240.663ZM38.1518 240.663H35.2718V239.977H38.1519V240.663H38.1518ZM32.3916 240.663H29.5115V239.977H32.3916V240.663Z" fill="#272425"/>
<path d="M642.973 209.101H640.092V208.414H642.973V209.101ZM637.212 209.101H634.332V208.414H637.212V209.101ZM631.452 209.101H628.572V208.414H631.452V209.101ZM625.692 209.101H622.812V208.414H625.692V209.101ZM619.932 209.101H617.052V208.414H619.932V209.101ZM614.172 209.101H611.292V208.414H614.172V209.101ZM608.411 209.101H605.531V208.414H608.411V209.101ZM602.651 209.101H599.771V208.414H602.651V209.101ZM596.891 209.101H594.011V208.414H596.891V209.101ZM591.131 209.101H588.251V208.414H591.131V209.101ZM585.371 209.101H582.49V208.414H585.371V209.101ZM579.61 209.101H576.73V208.414H579.61V209.101ZM573.85 209.101H570.97V208.414H573.85V209.101ZM568.09 209.101H565.21V208.414H568.09V209.101ZM562.33 209.101H559.45V208.414H562.33V209.101ZM556.57 209.101H553.69V208.414H556.57V209.101ZM550.809 209.101H547.929V208.414H550.809V209.101ZM545.049 209.101H542.169V208.414H545.049V209.101ZM539.289 209.101H536.409V208.414H539.289V209.101ZM533.529 209.101H530.649V208.414H533.529V209.101ZM527.769 209.101H524.889V208.414H527.769V209.101ZM522.009 209.101H519.128V208.414H522.009V209.101ZM516.248 209.101H513.368V208.414H516.248V209.101ZM510.488 209.101H507.608V208.414H510.488V209.101ZM504.728 209.101H501.848V208.414H504.728V209.101ZM498.968 209.101H496.088V208.414H498.968V209.101ZM493.207 209.101H490.327V208.414H493.207V209.101ZM487.447 209.101H484.567V208.414H487.447V209.101ZM481.687 209.101H478.807V208.414H481.687V209.101ZM475.927 209.101H473.047V208.414H475.927V209.101ZM470.167 209.101H467.287V208.414H470.167V209.101ZM464.407 209.101H461.526V208.414H464.407V209.101ZM458.646 209.101H455.766V208.414H458.646V209.101ZM452.886 209.101H450.006V208.414H452.886V209.101ZM447.126 209.101H444.246V208.414H447.126V209.101ZM441.366 209.101H438.486V208.414H441.366V209.101ZM435.606 209.101H432.726V208.414H435.606V209.101ZM429.845 209.101H426.965V208.414H429.845V209.101ZM424.085 209.101H421.205V208.414H424.085V209.101ZM418.325 209.101H415.445V208.414H418.325V209.101ZM412.565 209.101H409.685V208.414H412.565V209.101ZM406.805 209.101H403.925V208.414H406.805V209.101ZM401.045 209.101H398.164V208.414H401.045V209.101ZM395.284 209.101H392.404V208.414H395.284V209.101ZM389.524 209.101H386.644V208.414H389.524V209.101ZM383.764 209.101H380.884V208.414H383.764V209.101ZM378.004 209.101H375.124V208.414H378.004V209.101ZM372.243 209.101H369.363V208.414H372.243V209.101ZM366.483 209.101H363.603V208.414H366.483V209.101ZM360.723 209.101H357.843V208.414H360.723V209.101ZM354.963 209.101H352.083V208.414H354.963V209.101ZM349.203 209.101H346.323V208.414H349.203V209.101ZM343.443 209.101H340.562V208.414H343.443V209.101ZM337.682 209.101H334.802V208.414H337.682V209.101ZM331.922 209.101H329.042V208.414H331.922V209.101ZM326.162 209.101H323.282V208.414H326.162V209.101ZM320.402 209.101H317.522V208.414H320.402V209.101ZM314.642 209.101H311.761V208.414H314.642V209.101ZM308.881 209.101H306.001V208.414H308.881V209.101ZM303.121 209.101H300.241V208.414H303.121V209.101ZM297.361 209.101H294.481V208.414H297.361V209.101ZM291.601 209.101H288.721V208.414H291.601V209.101ZM285.841 209.101H282.961V208.414H285.841V209.101ZM280.08 209.101H277.2V208.414H280.08V209.101ZM274.32 209.101H271.44V208.414H274.32V209.101ZM268.56 209.101H265.68V208.414H268.56V209.101ZM262.8 209.101H259.92V208.414H262.8V209.101ZM257.04 209.101H254.159V208.414H257.04V209.101ZM251.279 209.101H248.399V208.414H251.279V209.101ZM245.519 209.101H242.639V208.414H245.519V209.101ZM239.759 209.101H236.879V208.414H239.759V209.101ZM233.999 209.101H231.119V208.414H233.999V209.101ZM228.239 209.101H225.359V208.414H228.239V209.101ZM222.478 209.101H219.598V208.414H222.478V209.101ZM216.718 209.101H213.838V208.414H216.718V209.101ZM210.958 209.101H208.078V208.414H210.958V209.101ZM205.198 209.101H202.318V208.414H205.198V209.101ZM199.438 209.101H196.558V208.414H199.438V209.101ZM193.678 209.101H190.797V208.414H193.678V209.101ZM187.917 209.101H185.037V208.414H187.917V209.101ZM182.157 209.101H179.277V208.414H182.157V209.101ZM176.397 209.101H173.517V208.414H176.397V209.101ZM170.637 209.101H167.757V208.414H170.637V209.101ZM164.876 209.101H161.996V208.414H164.876V209.101ZM159.116 209.101H156.236V208.414H159.116V209.101ZM153.356 209.101H150.476V208.414H153.356V209.101ZM147.596 209.101H144.716V208.414H147.596V209.101ZM141.836 209.101H138.955V208.414H141.836V209.101ZM136.075 209.101H133.195V208.414H136.075V209.101ZM130.315 209.101H127.435V208.414H130.315V209.101ZM124.555 209.101H121.675V208.414H124.555V209.101ZM118.795 209.101H115.915V208.414H118.795V209.101ZM113.035 209.101H110.154V208.414H113.035V209.101ZM107.274 209.101H104.394V208.414H107.274V209.101ZM101.514 209.101H98.634V208.414H101.514V209.101ZM95.754 209.101H92.8739V208.414H95.754V209.101ZM89.9937 209.101H87.1136V208.414H89.9937V209.101ZM84.2336 209.101H81.3534V208.414H84.2336V209.101ZM78.4734 209.101H75.5933V208.414H78.4734V209.101ZM72.713 209.101H69.8329V208.414H72.713V209.101ZM66.9528 209.101H64.0727V208.414H66.9528V209.101ZM61.1928 209.101H58.3125V208.414H61.1928V209.101ZM55.4324 209.101H52.5523V208.414H55.4324V209.101ZM49.6722 209.101H46.7921V208.414H49.6722V209.101ZM43.9121 209.101H41.0319V208.414H43.9121V209.101ZM38.1518 209.101H35.2718V208.414H38.1519V209.101H38.1518ZM32.3916 209.101H29.5115V208.414H32.3916V209.101Z" fill="#272425"/>
<path d="M642.973 177.538H640.092V176.852H642.973V177.538ZM637.212 177.538H634.332V176.852H637.212V177.538ZM631.452 177.538H628.572V176.852H631.452V177.538ZM625.692 177.538H622.812V176.852H625.692V177.538ZM619.932 177.538H617.052V176.852H619.932V177.538ZM614.172 177.538H611.292V176.852H614.172V177.538ZM608.411 177.538H605.531V176.852H608.411V177.538ZM602.651 177.538H599.771V176.852H602.651V177.538ZM596.891 177.538H594.011V176.852H596.891V177.538ZM591.131 177.538H588.251V176.852H591.131V177.538ZM585.371 177.538H582.49V176.852H585.371V177.538ZM579.61 177.538H576.73V176.852H579.61V177.538ZM573.85 177.538H570.97V176.852H573.85V177.538ZM568.09 177.538H565.21V176.852H568.09V177.538ZM562.33 177.538H559.45V176.852H562.33V177.538ZM556.57 177.538H553.69V176.852H556.57V177.538ZM550.809 177.538H547.929V176.852H550.809V177.538ZM545.049 177.538H542.169V176.852H545.049V177.538ZM539.289 177.538H536.409V176.852H539.289V177.538ZM533.529 177.538H530.649V176.852H533.529V177.538ZM527.769 177.538H524.889V176.852H527.769V177.538ZM522.009 177.538H519.128V176.852H522.009V177.538ZM516.248 177.538H513.368V176.852H516.248V177.538ZM510.488 177.538H507.608V176.852H510.488V177.538ZM504.728 177.538H501.848V176.852H504.728V177.538ZM498.968 177.538H496.088V176.852H498.968V177.538ZM493.207 177.538H490.327V176.852H493.207V177.538ZM487.447 177.538H484.567V176.852H487.447V177.538ZM481.687 177.538H478.807V176.852H481.687V177.538ZM475.927 177.538H473.047V176.852H475.927V177.538ZM470.167 177.538H467.287V176.852H470.167V177.538ZM464.407 177.538H461.526V176.852H464.407V177.538ZM458.646 177.538H455.766V176.852H458.646V177.538ZM452.886 177.538H450.006V176.852H452.886V177.538ZM447.126 177.538H444.246V176.852H447.126V177.538ZM441.366 177.538H438.486V176.852H441.366V177.538ZM435.606 177.538H432.726V176.852H435.606V177.538ZM429.845 177.538H426.965V176.852H429.845V177.538ZM424.085 177.538H421.205V176.852H424.085V177.538ZM418.325 177.538H415.445V176.852H418.325V177.538ZM412.565 177.538H409.685V176.852H412.565V177.538ZM406.805 177.538H403.925V176.852H406.805V177.538ZM401.045 177.538H398.164V176.852H401.045V177.538ZM395.284 177.538H392.404V176.852H395.284V177.538ZM389.524 177.538H386.644V176.852H389.524V177.538ZM383.764 177.538H380.884V176.852H383.764V177.538ZM378.004 177.538H375.124V176.852H378.004V177.538ZM372.243 177.538H369.363V176.852H372.243V177.538ZM366.483 177.538H363.603V176.852H366.483V177.538ZM360.723 177.538H357.843V176.852H360.723V177.538ZM354.963 177.538H352.083V176.852H354.963V177.538ZM349.203 177.538H346.323V176.852H349.203V177.538ZM343.443 177.538H340.562V176.852H343.443V177.538ZM337.682 177.538H334.802V176.852H337.682V177.538ZM331.922 177.538H329.042V176.852H331.922V177.538ZM326.162 177.538H323.282V176.852H326.162V177.538ZM320.402 177.538H317.522V176.852H320.402V177.538ZM314.642 177.538H311.761V176.852H314.642V177.538ZM308.881 177.538H306.001V176.852H308.881V177.538ZM303.121 177.538H300.241V176.852H303.121V177.538ZM297.361 177.538H294.481V176.852H297.361V177.538ZM291.601 177.538H288.721V176.852H291.601V177.538ZM285.841 177.538H282.961V176.852H285.841V177.538ZM280.08 177.538H277.2V176.852H280.08V177.538ZM274.32 177.538H271.44V176.852H274.32V177.538ZM268.56 177.538H265.68V176.852H268.56V177.538ZM262.8 177.538H259.92V176.852H262.8V177.538ZM257.04 177.538H254.159V176.852H257.04V177.538ZM251.279 177.538H248.399V176.852H251.279V177.538ZM245.519 177.538H242.639V176.852H245.519V177.538ZM239.759 177.538H236.879V176.852H239.759V177.538ZM233.999 177.538H231.119V176.852H233.999V177.538ZM228.239 177.538H225.359V176.852H228.239V177.538ZM222.478 177.538H219.598V176.852H222.478V177.538ZM216.718 177.538H213.838V176.852H216.718V177.538ZM210.958 177.538H208.078V176.852H210.958V177.538ZM205.198 177.538H202.318V176.852H205.198V177.538ZM199.438 177.538H196.558V176.852H199.438V177.538ZM193.678 177.538H190.797V176.852H193.678V177.538ZM187.917 177.538H185.037V176.852H187.917V177.538ZM182.157 177.538H179.277V176.852H182.157V177.538ZM176.397 177.538H173.517V176.852H176.397V177.538ZM170.637 177.538H167.757V176.852H170.637V177.538ZM164.876 177.538H161.996V176.852H164.876V177.538ZM159.116 177.538H156.236V176.852H159.116V177.538ZM153.356 177.538H150.476V176.852H153.356V177.538ZM147.596 177.538H144.716V176.852H147.596V177.538ZM141.836 177.538H138.955V176.852H141.836V177.538ZM136.075 177.538H133.195V176.852H136.075V177.538ZM130.315 177.538H127.435V176.852H130.315V177.538ZM124.555 177.538H121.675V176.852H124.555V177.538ZM118.795 177.538H115.915V176.852H118.795V177.538ZM113.035 177.538H110.154V176.852H113.035V177.538ZM107.274 177.538H104.394V176.852H107.274V177.538ZM101.514 177.538H98.634V176.852H101.514V177.538ZM95.754 177.538H92.8739V176.852H95.754V177.538ZM89.9937 177.538H87.1136V176.852H89.9937V177.538ZM84.2336 177.538H81.3534V176.852H84.2336V177.538ZM78.4734 177.538H75.5933V176.852H78.4734V177.538ZM72.713 177.538H69.8329V176.852H72.713V177.538ZM66.9528 177.538H64.0727V176.852H66.9528V177.538ZM61.1928 177.538H58.3125V176.852H61.1928V177.538ZM55.4324 177.538H52.5523V176.852H55.4324V177.538ZM49.6722 177.538H46.7921V176.852H49.6722V177.538ZM43.9121 177.538H41.0319V176.852H43.9121V177.538ZM38.1518 177.538H35.2718V176.852H38.1519V177.538H38.1518ZM32.3916 177.538H29.5115V176.852H32.3916V177.538Z" fill="#272425"/>
<path d="M642.973 146.053H640.092V145.366H642.973V146.053ZM637.212 146.053H634.332V145.366H637.212V146.053ZM631.452 146.053H628.572V145.366H631.452V146.053ZM625.692 146.053H622.812V145.366H625.692V146.053ZM619.932 146.053H617.052V145.366H619.932V146.053ZM614.172 146.053H611.292V145.366H614.172V146.053ZM608.411 146.053H605.531V145.366H608.411V146.053ZM602.651 146.053H599.771V145.366H602.651V146.053ZM596.891 146.053H594.011V145.366H596.891V146.053ZM591.131 146.053H588.251V145.366H591.131V146.053ZM585.371 146.053H582.49V145.366H585.371V146.053ZM579.61 146.053H576.73V145.366H579.61V146.053ZM573.85 146.053H570.97V145.366H573.85V146.053ZM568.09 146.053H565.21V145.366H568.09V146.053ZM562.33 146.053H559.45V145.366H562.33V146.053ZM556.57 146.053H553.69V145.366H556.57V146.053ZM550.809 146.053H547.929V145.366H550.809V146.053ZM545.049 146.053H542.169V145.366H545.049V146.053ZM539.289 146.053H536.409V145.366H539.289V146.053ZM533.529 146.053H530.649V145.366H533.529V146.053ZM527.769 146.053H524.889V145.366H527.769V146.053ZM522.009 146.053H519.128V145.366H522.009V146.053ZM516.248 146.053H513.368V145.366H516.248V146.053ZM510.488 146.053H507.608V145.366H510.488V146.053ZM504.728 146.053H501.848V145.366H504.728V146.053ZM498.968 146.053H496.088V145.366H498.968V146.053ZM493.207 146.053H490.327V145.366H493.207V146.053ZM487.447 146.053H484.567V145.366H487.447V146.053ZM481.687 146.053H478.807V145.366H481.687V146.053ZM475.927 146.053H473.047V145.366H475.927V146.053ZM470.167 146.053H467.287V145.366H470.167V146.053ZM464.407 146.053H461.526V145.366H464.407V146.053ZM458.646 146.053H455.766V145.366H458.646V146.053ZM452.886 146.053H450.006V145.366H452.886V146.053ZM447.126 146.053H444.246V145.366H447.126V146.053ZM441.366 146.053H438.486V145.366H441.366V146.053ZM435.606 146.053H432.726V145.366H435.606V146.053ZM429.845 146.053H426.965V145.366H429.845V146.053ZM424.085 146.053H421.205V145.366H424.085V146.053ZM418.325 146.053H415.445V145.366H418.325V146.053ZM412.565 146.053H409.685V145.366H412.565V146.053ZM406.805 146.053H403.925V145.366H406.805V146.053ZM401.045 146.053H398.164V145.366H401.045V146.053ZM395.284 146.053H392.404V145.366H395.284V146.053ZM389.524 146.053H386.644V145.366H389.524V146.053ZM383.764 146.053H380.884V145.366H383.764V146.053ZM378.004 146.053H375.124V145.366H378.004V146.053ZM372.243 146.053H369.363V145.366H372.243V146.053ZM366.483 146.053H363.603V145.366H366.483V146.053ZM360.723 146.053H357.843V145.366H360.723V146.053ZM354.963 146.053H352.083V145.366H354.963V146.053ZM349.203 146.053H346.323V145.366H349.203V146.053ZM343.443 146.053H340.562V145.366H343.443V146.053ZM337.682 146.053H334.802V145.366H337.682V146.053ZM331.922 146.053H329.042V145.366H331.922V146.053ZM326.162 146.053H323.282V145.366H326.162V146.053ZM320.402 146.053H317.522V145.366H320.402V146.053ZM314.642 146.053H311.761V145.366H314.642V146.053ZM308.881 146.053H306.001V145.366H308.881V146.053ZM303.121 146.053H300.241V145.366H303.121V146.053ZM297.361 146.053H294.481V145.366H297.361V146.053ZM291.601 146.053H288.721V145.366H291.601V146.053ZM285.841 146.053H282.961V145.366H285.841V146.053ZM280.08 146.053H277.2V145.366H280.08V146.053ZM274.32 146.053H271.44V145.366H274.32V146.053ZM268.56 146.053H265.68V145.366H268.56V146.053ZM262.8 146.053H259.92V145.366H262.8V146.053ZM257.04 146.053H254.159V145.366H257.04V146.053ZM251.279 146.053H248.399V145.366H251.279V146.053ZM245.519 146.053H242.639V145.366H245.519V146.053ZM239.759 146.053H236.879V145.366H239.759V146.053ZM233.999 146.053H231.119V145.366H233.999V146.053ZM228.239 146.053H225.359V145.366H228.239V146.053ZM222.478 146.053H219.598V145.366H222.478V146.053ZM216.718 146.053H213.838V145.366H216.718V146.053ZM210.958 146.053H208.078V145.366H210.958V146.053ZM205.198 146.053H202.318V145.366H205.198V146.053ZM199.438 146.053H196.558V145.366H199.438V146.053ZM193.678 146.053H190.797V145.366H193.678V146.053ZM187.917 146.053H185.037V145.366H187.917V146.053ZM182.157 146.053H179.277V145.366H182.157V146.053ZM176.397 146.053H173.517V145.366H176.397V146.053ZM170.637 146.053H167.757V145.366H170.637V146.053ZM164.876 146.053H161.996V145.366H164.876V146.053ZM159.116 146.053H156.236V145.366H159.116V146.053ZM153.356 146.053H150.476V145.366H153.356V146.053ZM147.596 146.053H144.716V145.366H147.596V146.053ZM141.836 146.053H138.955V145.366H141.836V146.053ZM136.075 146.053H133.195V145.366H136.075V146.053ZM130.315 146.053H127.435V145.366H130.315V146.053ZM124.555 146.053H121.675V145.366H124.555V146.053ZM118.795 146.053H115.915V145.366H118.795V146.053ZM113.035 146.053H110.154V145.366H113.035V146.053ZM107.274 146.053H104.394V145.366H107.274V146.053ZM101.514 146.053H98.634V145.366H101.514V146.053ZM95.754 146.053H92.8739V145.366H95.754V146.053ZM89.9937 146.053H87.1136V145.366H89.9937V146.053ZM84.2336 146.053H81.3534V145.366H84.2336V146.053ZM78.4734 146.053H75.5933V145.366H78.4734V146.053ZM72.713 146.053H69.8329V145.366H72.713V146.053ZM66.9528 146.053H64.0727V145.366H66.9528V146.053ZM61.1928 146.053H58.3125V145.366H61.1928V146.053ZM55.4324 146.053H52.5523V145.366H55.4324V146.053ZM49.6722 146.053H46.7921V145.366H49.6722V146.053ZM43.9121 146.053H41.0319V145.366H43.9121V146.053ZM38.1518 146.053H35.2718V145.366H38.1519V146.053H38.1518ZM32.3916 146.053H29.5115V145.366H32.3916V146.053Z" fill="#272425"/>
<path d="M642.973 114.49H640.092V113.804H642.973V114.49ZM637.212 114.49H634.332V113.804H637.212V114.49ZM631.452 114.49H628.572V113.804H631.452V114.49ZM625.692 114.49H622.812V113.804H625.692V114.49ZM619.932 114.49H617.052V113.804H619.932V114.49ZM614.172 114.49H611.292V113.804H614.172V114.49ZM608.411 114.49H605.531V113.804H608.411V114.49ZM602.651 114.49H599.771V113.804H602.651V114.49ZM596.891 114.49H594.011V113.804H596.891V114.49ZM591.131 114.49H588.251V113.804H591.131V114.49ZM585.371 114.49H582.49V113.804H585.371V114.49ZM579.61 114.49H576.73V113.804H579.61V114.49ZM573.85 114.49H570.97V113.804H573.85V114.49ZM568.09 114.49H565.21V113.804H568.09V114.49ZM562.33 114.49H559.45V113.804H562.33V114.49ZM556.57 114.49H553.69V113.804H556.57V114.49ZM550.809 114.49H547.929V113.804H550.809V114.49ZM545.049 114.49H542.169V113.804H545.049V114.49ZM539.289 114.49H536.409V113.804H539.289V114.49ZM533.529 114.49H530.649V113.804H533.529V114.49ZM527.769 114.49H524.889V113.804H527.769V114.49ZM522.009 114.49H519.128V113.804H522.009V114.49ZM516.248 114.49H513.368V113.804H516.248V114.49ZM510.488 114.49H507.608V113.804H510.488V114.49ZM504.728 114.49H501.848V113.804H504.728V114.49ZM498.968 114.49H496.088V113.804H498.968V114.49ZM493.207 114.49H490.327V113.804H493.207V114.49ZM487.447 114.49H484.567V113.804H487.447V114.49ZM481.687 114.49H478.807V113.804H481.687V114.49ZM475.927 114.49H473.047V113.804H475.927V114.49ZM470.167 114.49H467.287V113.804H470.167V114.49ZM464.407 114.49H461.526V113.804H464.407V114.49ZM458.646 114.49H455.766V113.804H458.646V114.49ZM452.886 114.49H450.006V113.804H452.886V114.49ZM447.126 114.49H444.246V113.804H447.126V114.49ZM441.366 114.49H438.486V113.804H441.366V114.49ZM435.606 114.49H432.726V113.804H435.606V114.49ZM429.845 114.49H426.965V113.804H429.845V114.49ZM424.085 114.49H421.205V113.804H424.085V114.49ZM418.325 114.49H415.445V113.804H418.325V114.49ZM412.565 114.49H409.685V113.804H412.565V114.49ZM406.805 114.49H403.925V113.804H406.805V114.49ZM401.045 114.49H398.164V113.804H401.045V114.49ZM395.284 114.49H392.404V113.804H395.284V114.49ZM389.524 114.49H386.644V113.804H389.524V114.49ZM383.764 114.49H380.884V113.804H383.764V114.49ZM378.004 114.49H375.124V113.804H378.004V114.49ZM372.243 114.49H369.363V113.804H372.243V114.49ZM366.483 114.49H363.603V113.804H366.483V114.49ZM360.723 114.49H357.843V113.804H360.723V114.49ZM354.963 114.49H352.083V113.804H354.963V114.49ZM349.203 114.49H346.323V113.804H349.203V114.49ZM343.443 114.49H340.562V113.804H343.443V114.49ZM337.682 114.49H334.802V113.804H337.682V114.49ZM331.922 114.49H329.042V113.804H331.922V114.49ZM326.162 114.49H323.282V113.804H326.162V114.49ZM320.402 114.49H317.522V113.804H320.402V114.49ZM314.642 114.49H311.761V113.804H314.642V114.49ZM308.881 114.49H306.001V113.804H308.881V114.49ZM303.121 114.49H300.241V113.804H303.121V114.49ZM297.361 114.49H294.481V113.804H297.361V114.49ZM291.601 114.49H288.721V113.804H291.601V114.49ZM285.841 114.49H282.961V113.804H285.841V114.49ZM280.08 114.49H277.2V113.804H280.08V114.49ZM274.32 114.49H271.44V113.804H274.32V114.49ZM268.56 114.49H265.68V113.804H268.56V114.49ZM262.8 114.49H259.92V113.804H262.8V114.49ZM257.04 114.49H254.159V113.804H257.04V114.49ZM251.279 114.49H248.399V113.804H251.279V114.49ZM245.519 114.49H242.639V113.804H245.519V114.49ZM239.759 114.49H236.879V113.804H239.759V114.49ZM233.999 114.49H231.119V113.804H233.999V114.49ZM228.239 114.49H225.359V113.804H228.239V114.49ZM222.478 114.49H219.598V113.804H222.478V114.49ZM216.718 114.49H213.838V113.804H216.718V114.49ZM210.958 114.49H208.078V113.804H210.958V114.49ZM205.198 114.49H202.318V113.804H205.198V114.49ZM199.438 114.49H196.558V113.804H199.438V114.49ZM193.678 114.49H190.797V113.804H193.678V114.49ZM187.917 114.49H185.037V113.804H187.917V114.49ZM182.157 114.49H179.277V113.804H182.157V114.49ZM176.397 114.49H173.517V113.804H176.397V114.49ZM170.637 114.49H167.757V113.804H170.637V114.49ZM164.876 114.49H161.996V113.804H164.876V114.49ZM159.116 114.49H156.236V113.804H159.116V114.49ZM153.356 114.49H150.476V113.804H153.356V114.49ZM147.596 114.49H144.716V113.804H147.596V114.49ZM141.836 114.49H138.955V113.804H141.836V114.49ZM136.075 114.49H133.195V113.804H136.075V114.49ZM130.315 114.49H127.435V113.804H130.315V114.49ZM124.555 114.49H121.675V113.804H124.555V114.49ZM118.795 114.49H115.915V113.804H118.795V114.49ZM113.035 114.49H110.154V113.804H113.035V114.49ZM107.274 114.49H104.394V113.804H107.274V114.49ZM101.514 114.49H98.634V113.804H101.514V114.49ZM95.754 114.49H92.8739V113.804H95.754V114.49ZM89.9937 114.49H87.1136V113.804H89.9937V114.49ZM84.2336 114.49H81.3534V113.804H84.2336V114.49ZM78.4734 114.49H75.5933V113.804H78.4734V114.49ZM72.713 114.49H69.8329V113.804H72.713V114.49ZM66.9528 114.49H64.0727V113.804H66.9528V114.49ZM61.1928 114.49H58.3125V113.804H61.1928V114.49ZM55.4324 114.49H52.5523V113.804H55.4324V114.49ZM49.6722 114.49H46.7921V113.804H49.6722V114.49ZM43.9121 114.49H41.0319V113.804H43.9121V114.49ZM38.1518 114.49H35.2718V113.804H38.1519V114.49H38.1518ZM32.3916 114.49H29.5115V113.804H32.3916V114.49Z" fill="#272425"/>
<path d="M642.973 83.0047H640.092V82.318H642.973V83.0047ZM637.212 83.0047H634.332V82.318H637.212V83.0047ZM631.452 83.0047H628.572V82.318H631.452V83.0047ZM625.692 83.0047H622.812V82.318H625.692V83.0047ZM619.932 83.0047H617.052V82.318H619.932V83.0047ZM614.172 83.0047H611.292V82.318H614.172V83.0047ZM608.411 83.0047H605.531V82.318H608.411V83.0047ZM602.651 83.0047H599.771V82.318H602.651V83.0047ZM596.891 83.0047H594.011V82.318H596.891V83.0047ZM591.131 83.0047H588.251V82.318H591.131V83.0047ZM585.371 83.0047H582.49V82.318H585.371V83.0047ZM579.61 83.0047H576.73V82.318H579.61V83.0047ZM573.85 83.0047H570.97V82.318H573.85V83.0047ZM568.09 83.0047H565.21V82.318H568.09V83.0047ZM562.33 83.0047H559.45V82.318H562.33V83.0047ZM556.57 83.0047H553.69V82.318H556.57V83.0047ZM550.809 83.0047H547.929V82.318H550.809V83.0047ZM545.049 83.0047H542.169V82.318H545.049V83.0047ZM539.289 83.0047H536.409V82.318H539.289V83.0047ZM533.529 83.0047H530.649V82.318H533.529V83.0047ZM527.769 83.0047H524.889V82.318H527.769V83.0047ZM522.009 83.0047H519.128V82.318H522.009V83.0047ZM516.248 83.0047H513.368V82.318H516.248V83.0047ZM510.488 83.0047H507.608V82.318H510.488V83.0047ZM504.728 83.0047H501.848V82.318H504.728V83.0047ZM498.968 83.0047H496.088V82.318H498.968V83.0047ZM493.207 83.0047H490.327V82.318H493.207V83.0047ZM487.447 83.0047H484.567V82.318H487.447V83.0047ZM481.687 83.0047H478.807V82.318H481.687V83.0047ZM475.927 83.0047H473.047V82.318H475.927V83.0047ZM470.167 83.0047H467.287V82.318H470.167V83.0047ZM464.407 83.0047H461.526V82.318H464.407V83.0047ZM458.646 83.0047H455.766V82.318H458.646V83.0047ZM452.886 83.0047H450.006V82.318H452.886V83.0047ZM447.126 83.0047H444.246V82.318H447.126V83.0047ZM441.366 83.0047H438.486V82.318H441.366V83.0047ZM435.606 83.0047H432.726V82.318H435.606V83.0047ZM429.845 83.0047H426.965V82.318H429.845V83.0047ZM424.085 83.0047H421.205V82.318H424.085V83.0047ZM418.325 83.0047H415.445V82.318H418.325V83.0047ZM412.565 83.0047H409.685V82.318H412.565V83.0047ZM406.805 83.0047H403.925V82.318H406.805V83.0047ZM401.045 83.0047H398.164V82.318H401.045V83.0047ZM395.284 83.0047H392.404V82.318H395.284V83.0047ZM389.524 83.0047H386.644V82.318H389.524V83.0047ZM383.764 83.0047H380.884V82.318H383.764V83.0047ZM378.004 83.0047H375.124V82.318H378.004V83.0047ZM372.243 83.0047H369.363V82.318H372.243V83.0047ZM366.483 83.0047H363.603V82.318H366.483V83.0047ZM360.723 83.0047H357.843V82.318H360.723V83.0047ZM354.963 83.0047H352.083V82.318H354.963V83.0047ZM349.203 83.0047H346.323V82.318H349.203V83.0047ZM343.443 83.0047H340.562V82.318H343.443V83.0047ZM337.682 83.0047H334.802V82.318H337.682V83.0047ZM331.922 83.0047H329.042V82.318H331.922V83.0047ZM326.162 83.0047H323.282V82.318H326.162V83.0047ZM320.402 83.0047H317.522V82.318H320.402V83.0047ZM314.642 83.0047H311.761V82.318H314.642V83.0047ZM308.881 83.0047H306.001V82.318H308.881V83.0047ZM303.121 83.0047H300.241V82.318H303.121V83.0047ZM297.361 83.0047H294.481V82.318H297.361V83.0047ZM291.601 83.0047H288.721V82.318H291.601V83.0047ZM285.841 83.0047H282.961V82.318H285.841V83.0047ZM280.08 83.0047H277.2V82.318H280.08V83.0047ZM274.32 83.0047H271.44V82.318H274.32V83.0047ZM268.56 83.0047H265.68V82.318H268.56V83.0047ZM262.8 83.0047H259.92V82.318H262.8V83.0047ZM257.04 83.0047H254.159V82.318H257.04V83.0047ZM251.279 83.0047H248.399V82.318H251.279V83.0047ZM245.519 83.0047H242.639V82.318H245.519V83.0047ZM239.759 83.0047H236.879V82.318H239.759V83.0047ZM233.999 83.0047H231.119V82.318H233.999V83.0047ZM228.239 83.0047H225.359V82.318H228.239V83.0047ZM222.478 83.0047H219.598V82.318H222.478V83.0047ZM216.718 83.0047H213.838V82.318H216.718V83.0047ZM210.958 83.0047H208.078V82.318H210.958V83.0047ZM205.198 83.0047H202.318V82.318H205.198V83.0047ZM199.438 83.0047H196.558V82.318H199.438V83.0047ZM193.678 83.0047H190.797V82.318H193.678V83.0047ZM187.917 83.0047H185.037V82.318H187.917V83.0047ZM182.157 83.0047H179.277V82.318H182.157V83.0047ZM176.397 83.0047H173.517V82.318H176.397V83.0047ZM170.637 83.0047H167.757V82.318H170.637V83.0047ZM164.876 83.0047H161.996V82.318H164.876V83.0047ZM159.116 83.0047H156.236V82.318H159.116V83.0047ZM153.356 83.0047H150.476V82.318H153.356V83.0047ZM147.596 83.0047H144.716V82.318H147.596V83.0047ZM141.836 83.0047H138.955V82.318H141.836V83.0047ZM136.075 83.0047H133.195V82.318H136.075V83.0047ZM130.315 83.0047H127.435V82.318H130.315V83.0047ZM124.555 83.0047H121.675V82.318H124.555V83.0047ZM118.795 83.0047H115.915V82.318H118.795V83.0047ZM113.035 83.0047H110.154V82.318H113.035V83.0047ZM107.274 83.0047H104.394V82.318H107.274V83.0047ZM101.514 83.0047H98.634V82.318H101.514V83.0047ZM95.754 83.0047H92.8739V82.318H95.754V83.0047ZM89.9937 83.0047H87.1136V82.318H89.9937V83.0047ZM84.2336 83.0047H81.3534V82.318H84.2336V83.0047ZM78.4734 83.0047H75.5933V82.318H78.4734V83.0047ZM72.713 83.0047H69.8329V82.318H72.713V83.0047ZM66.9528 83.0047H64.0727V82.318H66.9528V83.0047ZM61.1928 83.0047H58.3125V82.318H61.1928V83.0047ZM55.4324 83.0047H52.5523V82.318H55.4324V83.0047ZM49.6722 83.0047H46.7921V82.318H49.6722V83.0047ZM43.9121 83.0047H41.0319V82.318H43.9121V83.0047ZM38.1518 83.0047H35.2718V82.318H38.1519V83.0047H38.1518ZM32.3916 83.0047H29.5115V82.318H32.3916V83.0047Z" fill="#272425"/>
<path d="M111.483 170.197H53.7031V367.361H111.483V170.197Z" fill="#F06292"/>
<path d="M111 304H53.9999V367H111V304Z" fill="#4DBD97"/>
<path d="M281.78 207H224V366.163H281.78V207Z" fill="#F06292"/>
<path d="M281.297 315.014H224.297V365.872H281.297V315.014Z" fill="#4DBD97"/>
<path d="M363.78 82H306V366.163H363.78V82Z" fill="#F06292"/>
<path d="M363.297 274.844H306.297V365.644H363.297V274.844Z" fill="#4DBD97"/>
<path d="M447.78 114H390V366.163H447.78V114Z" fill="#F06292"/>
<path d="M447.297 285.128H390.297V365.702H447.297V285.128Z" fill="#4DBD97"/>
<path d="M527.78 177H470V366.163H527.78V177Z" fill="#F06292"/>
<path d="M527.297 305.374H470.297V365.817H527.297V305.374Z" fill="#4DBD97"/>
<path d="M617.78 146H560V366.163H617.78V146Z" fill="#F06292"/>
<path d="M617.297 295.411H560.297V365.761H617.297V295.411Z" fill="#4DBD97"/>
<path d="M193.78 145H136V366.615H193.78V145Z" fill="#F06292"/>
<path d="M193.78 272H136V366.615H193.78V272Z" fill="#4DBD97"/>
</g>
<path d="M666 367V366H0V367V368H666V367Z" fill="black" mask="url(#path-1-inside-1_9_2)"/>
<defs>
<clipPath id="clip0_9_2">
<path d="M0 0H666V367H0V0Z" fill="white"/>
</clipPath>
</defs>
</svg>
